<svg width="20" height="20" viewBox="0 0 20 20" fill="none" xmlns="http://www.w3.org/2000/svg">
<path opacity="0.34" fill-rule="evenodd" clip-rule="evenodd" d="M1.84968 1.84973C2.4249 1.27451 3.23695 1.04167 4.16663 1.04167H5.83329C6.76297 1.04167 7.57502 1.27451 8.15023 1.84973C8.72545 2.42495 8.95829 3.237 8.95829 4.16667V5.83334C8.95829 6.76301 8.72545 7.57506 8.15023 8.15028C7.57502 8.7255 6.76297 8.95834 5.83329 8.95834H4.16663C3.23695 8.95834 2.4249 8.7255 1.84968 8.15028C1.27447 7.57506 1.04163 6.76301 1.04163 5.83334V4.16667C1.04163 3.237 1.27447 2.42495 1.84968 1.84973ZM2.73357 2.73361C2.47545 2.99173 2.29163 3.42968 2.29163 4.16667V5.83334C2.29163 6.57033 2.47545 7.00828 2.73357 7.2664C2.99168 7.52451 3.42963 7.70834 4.16663 7.70834H5.83329C6.57029 7.70834 7.00823 7.52451 7.26635 7.2664C7.52447 7.00828 7.70829 6.57033 7.70829 5.83334V4.16667C7.70829 3.42968 7.52447 2.99173 7.26635 2.73361C7.00823 2.4755 6.57029 2.29167 5.83329 2.29167H4.16663C3.42963 2.29167 2.99168 2.4755 2.73357 2.73361Z" fill="#106FA4"/>
<path fill-rule="evenodd" clip-rule="evenodd" d="M11.8497 1.84973C12.4249 1.27451 13.237 1.04167 14.1666 1.04167H15.8333C16.763 1.04167 17.575 1.27451 18.1502 1.84973C18.7255 2.42495 18.9583 3.237 18.9583 4.16667V5.83334C18.9583 6.76301 18.7255 7.57506 18.1502 8.15028C17.575 8.7255 16.763 8.95834 15.8333 8.95834H14.1666C13.237 8.95834 12.4249 8.7255 11.8497 8.15028C11.2745 7.57506 11.0416 6.76301 11.0416 5.83334V4.16667C11.0416 3.237 11.2745 2.42495 11.8497 1.84973ZM12.7336 2.73361C12.4755 2.99173 12.2916 3.42968 12.2916 4.16667V5.83334C12.2916 6.57033 12.4755 7.00828 12.7336 7.2664C12.9917 7.52451 13.4296 7.70834 14.1666 7.70834H15.8333C16.5703 7.70834 17.0082 7.52451 17.2664 7.2664C17.5245 7.00828 17.7083 6.57033 17.7083 5.83334V4.16667C17.7083 3.42968 17.5245 2.99173 17.2664 2.73361C17.0082 2.4755 16.5703 2.29167 15.8333 2.29167H14.1666C13.4296 2.29167 12.9917 2.4755 12.7336 2.73361Z" fill="#FAB317"/>
<path opacity="0.34" fill-rule="evenodd" clip-rule="evenodd" d="M11.8497 11.8497C12.4249 11.2745 13.237 11.0417 14.1666 11.0417H15.8333C16.763 11.0417 17.575 11.2745 18.1502 11.8497C18.7255 12.4249 18.9583 13.237 18.9583 14.1667V15.8333C18.9583 16.763 18.7255 17.5751 18.1502 18.1503C17.575 18.7255 16.763 18.9583 15.8333 18.9583H14.1666C13.237 18.9583 12.4249 18.7255 11.8497 18.1503C11.2745 17.5751 11.0416 16.763 11.0416 15.8333V14.1667C11.0416 13.237 11.2745 12.4249 11.8497 11.8497ZM12.7336 12.7336C12.4755 12.9917 12.2916 13.4297 12.2916 14.1667V15.8333C12.2916 16.5703 12.4755 17.0083 12.7336 17.2664C12.9917 17.5245 13.4296 17.7083 14.1666 17.7083H15.8333C16.5703 17.7083 17.0082 17.5245 17.2664 17.2664C17.5245 17.0083 17.7083 16.5703 17.7083 15.8333V14.1667C17.7083 13.4297 17.5245 12.9917 17.2664 12.7336C17.0082 12.4755 16.5703 12.2917 15.8333 12.2917H14.1666C13.4296 12.2917 12.9917 12.4755 12.7336 12.7336Z" fill="#3EB449"/>
<path fill-rule="evenodd" clip-rule="evenodd" d="M1.84968 11.8497C2.4249 11.2745 3.23695 11.0417 4.16663 11.0417H5.83329C6.76297 11.0417 7.57502 11.2745 8.15023 11.8497C8.72545 12.4249 8.95829 13.237 8.95829 14.1667V15.8333C8.95829 16.763 8.72545 17.5751 8.15023 18.1503C7.57502 18.7255 6.76297 18.9583 5.83329 18.9583H4.16663C3.23695 18.9583 2.4249 18.7255 1.84968 18.1503C1.27447 17.5751 1.04163 16.763 1.04163 15.8333V14.1667C1.04163 13.237 1.27447 12.4249 1.84968 11.8497ZM2.73357 12.7336C2.47545 12.9917 2.29163 13.4297 2.29163 14.1667V15.8333C2.29163 16.5703 2.47545 17.0083 2.73357 17.2664C2.99168 17.5245 3.42963 17.7083 4.16663 17.7083H5.83329C6.57029 17.7083 7.00823 17.5245 7.26635 17.2664C7.52447 17.0083 7.70829 16.5703 7.70829 15.8333V14.1667C7.70829 13.4297 7.52447 12.9917 7.26635 12.7336C7.00823 12.4755 6.57029 12.2917 5.83329 12.2917H4.16663C3.42963 12.2917 2.99168 12.4755 2.73357 12.7336Z" fill="#EE2D24"/>
</svg>
