<svg width="85" height="36" viewBox="0 0 85 36" fill="none" xmlns="http://www.w3.org/2000/svg">
<path d="M10.136 27.0469C10.2667 26.8768 10.4514 26.6444 10.5469 26.5344C10.6402 26.4224 10.7232 26.3331 10.7315 26.3373C10.7378 26.3394 10.8228 26.4348 10.9183 26.5489C11.0137 26.6631 11.1839 26.8768 11.3001 27.0262C11.4142 27.1756 11.5822 27.4017 11.6735 27.5304C11.7628 27.657 11.9205 27.8914 12.0201 28.0491C12.1197 28.2047 12.2608 28.4371 12.3334 28.5616C12.406 28.6882 12.4952 28.8459 12.5326 28.9144C12.5699 28.9828 12.6695 29.1737 12.7525 29.3397C12.8355 29.5057 12.9372 29.7153 12.9787 29.8066C13.0202 29.8979 13.0928 30.0618 13.1364 30.1697C13.182 30.2776 13.2173 30.3689 13.2173 30.373C13.2173 30.3751 12.0968 30.3772 8.23746 30.3772L8.24991 30.3315C8.25821 30.3046 8.32461 30.1448 8.40138 29.9726C8.47608 29.8024 8.61718 29.5016 8.7147 29.3086C8.81222 29.1156 8.97614 28.8106 9.07574 28.6342C9.17741 28.4579 9.40357 28.0989 9.57787 27.8354C9.75216 27.5719 10.0032 27.2191 10.136 27.0469Z" fill="#EE2D24"/>
<path d="M8.0362 30.8856C8.09844 30.7133 8.16692 30.5307 8.18767 30.4747L8.22502 30.3772L13.2256 30.3876L13.3044 30.5847C13.3501 30.6926 13.4393 30.9457 13.5078 31.1449C13.5742 31.3441 13.6572 31.6056 13.6904 31.7259C13.7256 31.8462 13.792 32.0932 13.8377 32.2758C13.8833 32.4584 13.9477 32.753 13.9829 32.9294C14.0182 33.1057 14.0639 33.3672 14.0867 33.5103C14.1095 33.6535 14.1427 33.8859 14.1614 34.0291C14.178 34.1722 14.207 34.5125 14.2236 34.7864C14.2402 35.0603 14.2548 35.3798 14.2548 35.7098H7.2V35.4649C7.2 35.3321 7.21038 35.0686 7.22075 34.8798C7.2332 34.691 7.26017 34.3652 7.283 34.1536C7.30375 33.9419 7.3411 33.6494 7.366 33.5C7.38882 33.3506 7.43654 33.0891 7.47182 32.919C7.50502 32.7468 7.56934 32.4584 7.61499 32.2758C7.65856 32.0932 7.74778 31.7757 7.81003 31.5703C7.87228 31.3649 7.97395 31.0557 8.0362 30.8856Z" fill="#653938"/>
<path d="M10.7274 21.455V16.0913V10.7276H21.4651L21.4506 11.1364C21.4423 11.3625 21.4216 11.6738 21.405 11.8273C21.3884 11.9809 21.3593 12.205 21.3406 12.3253C21.322 12.4455 21.2971 12.5947 21.2867 12.6571L21.2867 12.6573C21.2742 12.7195 21.2452 12.8606 21.2224 12.9685C21.1995 13.0764 21.158 13.259 21.129 13.3731C21.0999 13.4873 21.0398 13.7031 20.9941 13.8504C20.9505 13.9977 20.88 14.2135 20.8385 14.3276C20.7991 14.4417 20.7223 14.6389 20.6725 14.7634C20.6206 14.8878 20.5231 15.114 20.4546 15.2613C20.3862 15.4087 20.2658 15.6535 20.1849 15.8008C20.104 15.9481 19.9961 16.1411 19.9442 16.2262C19.8923 16.3112 19.7658 16.5084 19.6641 16.6619C19.5624 16.8155 19.411 17.0292 19.33 17.1371C19.2491 17.245 19.164 17.357 19.1433 17.3861C19.1205 17.4151 19.0229 17.5334 18.9254 17.6475C18.8279 17.7616 18.6432 17.967 18.5167 18.104C18.3901 18.2409 18.1618 18.4671 18.0083 18.6061C17.8548 18.7431 17.6224 18.9443 17.4916 19.0522C17.3609 19.158 17.17 19.3074 17.0663 19.3821C16.9625 19.4589 16.7447 19.6083 16.5787 19.7162C16.4127 19.8262 16.1741 19.9735 16.0496 20.044C15.9251 20.1167 15.6346 20.2661 15.4063 20.3781C15.1781 20.4881 14.8606 20.6312 14.7009 20.6935C14.5411 20.7557 14.2714 20.8553 14.0991 20.9114C13.929 20.9695 13.6613 21.0504 13.5078 21.0898C13.3542 21.1292 13.1198 21.1853 12.9891 21.2143C12.8583 21.2434 12.6342 21.2848 12.4911 21.3077C12.3479 21.3305 12.1155 21.3637 11.9723 21.3803C11.8292 21.399 11.5636 21.4218 11.381 21.4342C11.1984 21.4446 10.9764 21.455 10.7274 21.455Z" fill="#088A49"/>
<path d="M0 30.3775V25.9164V21.4553H0.284265C0.44196 21.4553 0.697176 21.4636 0.85072 21.4761C1.00427 21.4864 1.23458 21.5051 1.35908 21.5176C1.48357 21.53 1.66202 21.5487 1.75331 21.5611C1.84461 21.5715 1.97948 21.5902 2.05418 21.6026C2.12887 21.613 2.24092 21.6317 2.30317 21.6421L2.30317 21.6421C2.36542 21.6524 2.50651 21.6773 2.61441 21.6939C2.72231 21.7126 2.84888 21.7354 2.89452 21.7458C2.94017 21.7562 3.02317 21.7749 3.08127 21.7873C3.13729 21.7998 3.27839 21.833 3.39251 21.862C3.50663 21.8911 3.68922 21.9388 3.79712 21.9658C3.90501 21.9948 4.02121 22.0259 4.05648 22.0342C4.09176 22.0446 4.30133 22.1131 4.52334 22.1878C4.74536 22.2604 5.06282 22.3766 5.22882 22.4409C5.39481 22.5052 5.58156 22.582 5.6438 22.6111C5.70605 22.638 5.82225 22.692 5.90317 22.7273C5.98409 22.7646 6.22063 22.8808 6.43228 22.9866C6.64392 23.0924 6.85349 23.2003 6.89914 23.2273C6.94478 23.2522 7.02363 23.2979 7.0755 23.3269C7.12738 23.356 7.24357 23.4224 7.33487 23.4784L7.359 23.4932C7.44927 23.5486 7.57203 23.6239 7.64611 23.6713C7.72703 23.7211 7.8287 23.7875 7.87435 23.8187C7.92 23.8477 8.05072 23.9369 8.16484 24.0179C8.27896 24.0967 8.38063 24.1693 8.39308 24.1776C8.40553 24.188 8.48853 24.2503 8.57983 24.3208C8.67112 24.3893 8.76035 24.4557 8.77695 24.4702C8.79354 24.4847 8.84957 24.5283 8.90144 24.5677C8.95331 24.6071 9.02801 24.6673 9.06951 24.7026C9.10893 24.7358 9.17118 24.7877 9.20438 24.8146C9.23758 24.8437 9.37245 24.962 9.50317 25.0781C9.63389 25.1943 9.86421 25.4101 10.0115 25.5554C10.1609 25.7027 10.3809 25.9289 10.4991 26.0575C10.6195 26.1862 10.717 26.3024 10.717 26.3127C10.717 26.3231 10.6402 26.4227 10.5469 26.5347C10.4514 26.6447 10.2667 26.875 10.136 27.0473C10.0032 27.2174 9.76046 27.5598 9.59654 27.8046C9.43262 28.0494 9.19816 28.4229 9.07781 28.6346C8.95746 28.8462 8.76657 29.2052 8.65452 29.4334C8.54248 29.6617 8.40138 29.9667 8.22709 30.3775H0Z" fill="#FDB415"/>
<path d="M0.0207493 11.6161C0.0103746 11.504 0 11.253 0 11.06V10.7073L10.717 10.7177L10.7274 21.4554H10.4846C10.3497 21.4554 10.1236 21.445 9.9804 21.4347C9.83723 21.4222 9.59447 21.3973 9.44092 21.3807C9.28738 21.3641 9.10063 21.3413 9.02594 21.3268C8.95124 21.3143 8.77487 21.2811 8.6317 21.2541C8.48853 21.2251 8.33914 21.194 8.29971 21.1857C8.26029 21.1774 8.10052 21.1359 7.94697 21.0964C7.79343 21.057 7.50916 20.9699 7.31412 20.9055C7.11908 20.8391 6.93233 20.7748 6.89914 20.7603C6.86594 20.7458 6.69787 20.6752 6.52565 20.6047C6.3555 20.5321 6.09199 20.4138 5.94467 20.3391C5.79735 20.2665 5.60023 20.1627 5.50893 20.1108C5.42028 20.0605 5.28074 19.9788 5.19485 19.9285L5.18732 19.9241C5.10225 19.8722 4.93003 19.7643 4.80346 19.6813C4.67689 19.5983 4.50882 19.4821 4.42997 19.424C4.35112 19.3639 4.2702 19.3058 4.2536 19.2913C4.237 19.2767 4.18513 19.2373 4.13948 19.2041C4.09383 19.1688 4.04611 19.1315 4.03366 19.1211C4.01914 19.1107 3.99216 19.0858 3.96934 19.0692C3.94859 19.0526 3.88012 18.9966 3.81787 18.9447C3.75562 18.8949 3.64772 18.8016 3.57925 18.7393C3.51078 18.6771 3.35723 18.5318 3.23689 18.4156C3.11654 18.3015 2.92565 18.1044 2.81153 17.9778C2.69741 17.8533 2.57706 17.7164 2.54179 17.677C2.50651 17.6375 2.40899 17.5172 2.32184 17.4093C2.2347 17.3014 2.08945 17.1084 2.00023 16.9839C1.90893 16.8594 1.81141 16.7183 1.78029 16.6727C1.75124 16.627 1.67032 16.4984 1.59977 16.3884C1.52922 16.2764 1.4732 16.1747 1.4732 16.1643C1.4732 16.154 1.46282 16.1436 1.45245 16.1436C1.44208 16.1436 1.4317 16.1332 1.4317 16.1228C1.4317 16.1125 1.40888 16.0668 1.38398 16.0253C1.357 15.9817 1.26986 15.8199 1.19101 15.6664C1.11216 15.5128 1.01464 15.3157 0.977291 15.2306C0.937867 15.1455 0.87977 15.019 0.848646 14.9505C0.817522 14.882 0.767723 14.7617 0.736599 14.6808C0.705476 14.5998 0.672277 14.5127 0.663977 14.4836C0.653602 14.4546 0.618329 14.3529 0.58098 14.2554C0.545706 14.1579 0.493833 14.0002 0.464784 13.9027C0.435735 13.8051 0.402536 13.6972 0.394236 13.664C0.383862 13.6308 0.348588 13.4898 0.313314 13.3528C0.27804 13.2159 0.222017 12.9544 0.186744 12.7718L0.186742 12.7718C0.153543 12.5892 0.116196 12.3838 0.105821 12.3153C0.0954467 12.2469 0.0767723 12.1079 0.0643228 12.0041C0.0518732 11.9004 0.0331988 11.7261 0.0207493 11.6161Z" fill="#2995B2"/>
<path d="M0 35.7098V33.0435V30.3772H4.10836C6.83274 30.3772 8.21671 30.3834 8.21671 30.3979C8.21671 30.4083 8.19804 30.4623 8.17314 30.5162C8.15032 30.5722 8.07562 30.7694 8.00922 30.9582C7.94282 31.147 7.84115 31.4603 7.78513 31.6533C7.72703 31.8462 7.64611 32.1409 7.60669 32.3069C7.56726 32.4729 7.50501 32.7468 7.47182 32.919C7.43654 33.0891 7.38882 33.3506 7.36599 33.5C7.3411 33.6494 7.30375 33.9419 7.283 34.1536C7.26017 34.3652 7.2332 34.691 7.22075 34.8798C7.21037 35.0686 7.2 35.3342 7.2 35.7201L0 35.7098Z" fill="#577441"/>
<path d="M20.0961 21.5176C20.2206 21.5051 20.4281 21.4885 20.5526 21.4781C20.6771 21.4698 20.9364 21.4595 21.4759 21.4553V30.3775L13.2281 30.3796L13.1471 30.1866C13.1015 30.0808 13.0247 29.9044 12.9728 29.7965C12.923 29.6886 12.8193 29.4728 12.7425 29.3193C12.6658 29.1658 12.5703 28.9832 12.533 28.9147C12.4956 28.8462 12.4064 28.6885 12.3338 28.562C12.2611 28.4375 12.1201 28.2051 12.0205 28.0494C11.9209 27.8917 11.7632 27.6573 11.6739 27.5307C11.5826 27.4021 11.4146 27.1759 11.3005 27.0265C11.1863 26.8771 11.0224 26.6717 10.9353 26.57C10.8502 26.4663 10.7672 26.3667 10.7547 26.3459C10.7319 26.3148 10.7444 26.292 10.8502 26.1716C10.9166 26.0928 11.1075 25.8957 11.2714 25.7297C11.4353 25.5637 11.6449 25.3583 11.7362 25.2732C11.8254 25.1881 11.9375 25.0844 11.9831 25.0449C12.0288 25.0055 12.1221 24.9246 12.1906 24.8686C12.2591 24.8105 12.3192 24.7607 12.3255 24.7545C12.3317 24.7482 12.3836 24.7047 12.4396 24.6611C12.4977 24.6154 12.5475 24.5739 12.5537 24.5677C12.5599 24.5615 12.6305 24.5055 12.7114 24.4432C12.7944 24.381 12.8857 24.3104 12.9168 24.2876C12.95 24.2648 12.9853 24.2357 12.9977 24.2233C13.0102 24.2129 13.1471 24.1154 13.3007 24.0096C13.4542 23.9037 13.5995 23.8062 13.6223 23.7938C13.6451 23.7813 13.6742 23.7626 13.6866 23.7502C13.7011 23.7377 13.7572 23.7004 13.8111 23.6672C13.8671 23.6319 13.9647 23.5738 14.0269 23.5365C14.0892 23.4971 14.1473 23.4659 14.1576 23.468C14.1659 23.468 14.1722 23.4597 14.1722 23.4473C14.1722 23.4369 14.1888 23.4224 14.2095 23.4161C14.2282 23.4099 14.334 23.356 14.4419 23.2937C14.5498 23.2294 14.8403 23.08 15.0851 22.9576C15.33 22.8351 15.5478 22.7293 15.5686 22.719C15.5873 22.7086 15.6993 22.6588 15.8155 22.609C15.9338 22.5592 16.1413 22.4741 16.2782 22.4202C16.4152 22.3662 16.7243 22.2583 16.9629 22.1795C17.2016 22.1006 17.4277 22.028 17.4609 22.0156C17.4941 22.0052 17.6726 21.9575 17.8552 21.9118C18.0377 21.8641 18.2701 21.8081 18.3739 21.7852C18.4776 21.7624 18.6353 21.7313 18.7266 21.7147C18.8179 21.6981 18.9818 21.6711 19.0897 21.6524C19.1976 21.6358 19.3429 21.6109 19.4113 21.6006C19.4798 21.5902 19.6105 21.5715 19.7018 21.5611C19.7931 21.5487 19.9716 21.53 20.0961 21.5176Z" fill="#EE3166"/>
<path d="M10.707 10.7276V5.36393V0.000244141H11.0639C11.261 0.000244141 11.5059 0.0106188 11.6096 0.0209934C11.7134 0.033443 11.8856 0.0521173 11.9935 0.0645669C12.1014 0.0770165 12.2466 0.0956908 12.3151 0.106065C12.3836 0.118515 12.4915 0.135114 12.5537 0.145489C12.616 0.157939 12.7425 0.180763 12.8338 0.197362C12.9251 0.216037 13.0828 0.249236 13.1866 0.27206C13.2903 0.296959 13.4708 0.342607 13.5912 0.375806C13.7115 0.41108 13.9128 0.471253 14.0373 0.512751C14.1618 0.552175 14.3548 0.618573 14.4627 0.657996C14.5705 0.69742 14.7345 0.761743 14.8258 0.799091C14.9171 0.83644 15.0748 0.906988 15.1785 0.954711C15.2822 1.00243 15.4358 1.07506 15.5209 1.11863C15.6059 1.16013 15.7595 1.24105 15.8632 1.29707C15.967 1.35102 16.1205 1.44024 16.2056 1.49004C16.2907 1.54192 16.4774 1.66019 16.6206 1.75356C16.7637 1.84693 16.9546 1.97765 17.0459 2.04405C17.1372 2.11252 17.3012 2.23702 17.409 2.32209C17.5169 2.40924 17.629 2.50053 17.658 2.52543C17.6871 2.55241 17.7576 2.61258 17.8178 2.66238C17.8759 2.7101 18.0958 2.92174 18.3054 3.13339C18.515 3.34503 18.7474 3.58779 18.8221 3.67287C18.8947 3.75794 18.9984 3.88036 19.0503 3.94261C19.1022 4.00486 19.2142 4.1501 19.3014 4.26422C19.3865 4.37834 19.5379 4.58791 19.6334 4.73108C19.7309 4.87425 19.8907 5.12739 19.9903 5.29754C20.0878 5.4656 20.2372 5.7395 20.3222 5.90756C20.4052 6.07771 20.5048 6.2852 20.5422 6.37027C20.5795 6.45535 20.6252 6.56324 20.6459 6.60889C20.6667 6.65454 20.731 6.82261 20.7891 6.98238C20.8493 7.14215 20.9053 7.29569 20.9157 7.32474C20.9261 7.35379 20.9634 7.47413 20.9987 7.59448C21.0339 7.71483 21.092 7.92024 21.1252 8.05097C21.1605 8.18169 21.2103 8.39748 21.2373 8.5282C21.2643 8.65892 21.2995 8.86019 21.3182 8.97431C21.3369 9.08843 21.3618 9.24612 21.3722 9.32705C21.3825 9.40797 21.4012 9.56566 21.4137 9.67978C21.424 9.7939 21.4448 10.0595 21.4552 10.2711C21.4676 10.4828 21.4759 10.6716 21.4759 10.6903C21.4759 10.7255 21.2062 10.7276 10.707 10.7276Z" fill="#39B54A"/>
<path d="M80.3203 10.8305C80.4226 10.8213 80.5321 10.8113 80.582 10.806C80.638 10.8018 80.8746 10.7956 81.109 10.7935C81.3435 10.7915 81.6547 10.7998 81.8041 10.8101C81.9535 10.8205 82.1444 10.8392 82.2295 10.8516C82.3146 10.862 82.4411 10.8807 82.5096 10.8911C82.5781 10.9035 82.6943 10.9222 82.769 10.9346C82.8437 10.9471 82.9827 10.9761 83.0802 10.999C83.1777 11.0218 83.2794 11.0487 83.3085 11.0591C83.3375 11.0674 83.4309 11.0965 83.516 11.1214C83.601 11.1463 83.738 11.1898 83.8168 11.2189C83.8957 11.2479 84.0015 11.2894 84.0513 11.3102C84.099 11.3309 84.1426 11.3496 84.1488 11.3496C84.155 11.3496 84.2588 11.3994 84.3791 11.4596C84.5015 11.5177 84.6032 11.5737 84.6074 11.5841C84.6115 11.5924 84.5576 11.7356 84.4891 11.9057C84.4185 12.0738 84.3293 12.2896 84.292 12.3871C84.2526 12.4846 84.2069 12.5925 84.1924 12.6257C84.1758 12.661 84.1198 12.7958 84.0658 12.9266C84.0119 13.0573 83.9579 13.1942 83.9413 13.2274C83.9268 13.2627 83.8791 13.3727 83.8376 13.4764C83.794 13.5802 83.7421 13.7026 83.682 13.8395L83.5118 13.7586C83.4164 13.715 83.2877 13.6549 83.2255 13.6279C83.1632 13.5988 83.0138 13.5407 82.8935 13.4992C82.7731 13.4557 82.6486 13.4121 82.6134 13.4017C82.5781 13.3913 82.5096 13.3706 82.4577 13.354C82.4059 13.3374 82.3042 13.3104 82.2295 13.2917C82.1548 13.2751 82.0386 13.2502 81.9701 13.2378C81.9017 13.2253 81.7336 13.2025 81.5966 13.1859C81.4597 13.1693 81.2543 13.1548 81.1402 13.1548C81.026 13.1548 80.8331 13.1693 80.7107 13.1859C80.5862 13.2025 80.4285 13.2357 80.3579 13.2606C80.2853 13.2834 80.1878 13.3332 80.14 13.3685C80.0944 13.4059 80.0405 13.464 80.0218 13.4972C80.0031 13.5324 79.9782 13.5926 79.9699 13.632C79.9575 13.6777 79.9595 13.7399 79.9741 13.798C79.9886 13.8541 80.0259 13.9204 80.0716 13.9661C80.111 14.0076 80.1712 14.0553 80.2064 14.0719C80.2417 14.0906 80.3289 14.1238 80.4036 14.1487C80.4783 14.1736 80.5654 14.2006 80.6007 14.2109C80.636 14.2213 80.7024 14.2379 80.7522 14.2524C80.7999 14.2649 80.8746 14.2836 80.9181 14.296C80.9596 14.3064 81.1153 14.3396 81.2647 14.3686C81.4141 14.3977 81.5863 14.4309 81.6485 14.4433C81.7108 14.4558 81.8 14.4745 81.8456 14.4828C81.8913 14.4931 82.0697 14.5346 82.2399 14.5761C82.4121 14.6156 82.5843 14.657 82.6237 14.6695C82.6632 14.6799 82.7628 14.7089 82.8416 14.7338C82.9205 14.7587 83.0761 14.8085 83.184 14.8459C83.2919 14.8832 83.4288 14.9351 83.4848 14.9621C83.5429 14.989 83.6674 15.0554 83.7649 15.1135C83.8625 15.1696 83.9745 15.2401 84.0139 15.2692C84.0534 15.2982 84.1198 15.3501 84.1592 15.3853C84.1986 15.4185 84.3024 15.5161 84.3895 15.6032C84.4746 15.6883 84.5928 15.8294 84.6489 15.9145C84.707 15.9995 84.7754 16.1219 84.8003 16.1842C84.8273 16.2464 84.8667 16.3543 84.8896 16.4228C84.9103 16.4913 84.9414 16.6137 84.958 16.6926C84.9788 16.7922 84.9892 16.9685 84.9892 17.2528C84.9892 17.5495 84.9809 17.7113 84.956 17.8234C84.9394 17.9085 84.8958 18.062 84.8605 18.1658C84.8252 18.2695 84.7651 18.4127 84.7277 18.4874C84.6883 18.5621 84.6406 18.6513 84.6198 18.6845C84.6011 18.7198 84.5472 18.8028 84.5015 18.8712C84.4559 18.9397 84.3356 19.0808 84.2318 19.1825C84.1301 19.2862 83.9849 19.4149 83.9102 19.4688C83.8355 19.5228 83.7525 19.585 83.7234 19.6078C83.6944 19.6307 83.5118 19.7282 83.3188 19.8257C83.1093 19.9294 82.8707 20.0311 82.7275 20.0747C82.5968 20.1141 82.4619 20.1577 82.4266 20.1681C82.3913 20.1784 82.271 20.2054 82.1569 20.2262C82.0428 20.249 81.8788 20.278 81.7938 20.2905C81.7087 20.3029 81.5178 20.3237 81.3684 20.3341C81.219 20.3465 80.9306 20.3548 80.7252 20.3548C80.5198 20.3548 80.221 20.3465 80.0612 20.3341C79.9014 20.3237 79.6856 20.305 79.584 20.2926C79.4823 20.2801 79.3433 20.2614 79.2789 20.249C79.2126 20.2386 79.1005 20.2199 79.03 20.2075C78.9573 20.195 78.8619 20.1784 78.8162 20.1681C78.7706 20.1577 78.6316 20.1245 78.505 20.0954C78.3784 20.0664 78.2394 20.0332 78.1938 20.0187C78.1481 20.0062 78.0132 19.9647 77.8929 19.9253C77.7726 19.8859 77.5775 19.8153 77.4572 19.7676C77.3368 19.7219 77.1376 19.6286 77.0111 19.5643C76.8845 19.4979 76.7745 19.4335 76.7662 19.4169C76.7538 19.4003 76.7787 19.3236 76.8326 19.2094C76.8803 19.1078 76.9177 19.0227 76.9177 19.0165C76.9177 19.0102 76.9509 18.9356 76.9903 18.8505C77.0297 18.7654 77.0629 18.6907 77.0629 18.6845C77.0629 18.6783 77.1003 18.5953 77.1459 18.4977C77.1916 18.4002 77.2289 18.3172 77.2289 18.311C77.2289 18.3048 77.2559 18.2404 77.2912 18.1658C77.3265 18.0911 77.3804 17.9707 77.4157 17.896C77.4509 17.8213 77.4779 17.757 77.4779 17.7508C77.4779 17.7445 77.5049 17.6823 77.5381 17.6117C77.5692 17.5391 77.6149 17.4395 77.6377 17.3877C77.6605 17.3358 77.6916 17.2632 77.7082 17.2258C77.7248 17.1905 77.7497 17.1594 77.7643 17.1594C77.7767 17.1594 77.8431 17.1905 77.9095 17.2279C77.9738 17.2652 78.0755 17.3171 78.1315 17.3441L78.1567 17.3558C78.2141 17.3825 78.2905 17.418 78.339 17.4395C78.3971 17.4665 78.5092 17.5121 78.588 17.5433C78.6669 17.5744 78.8266 17.6304 78.9407 17.6678C79.0549 17.7072 79.2271 17.7591 79.3246 17.7819C79.4221 17.8068 79.5383 17.8358 79.584 17.8462C79.6296 17.8566 79.7188 17.8753 79.7811 17.8877C79.8433 17.9002 79.9512 17.9168 80.0197 17.9271C80.0882 17.9375 80.2749 17.9562 80.4347 17.9686C80.5945 17.9811 80.8414 17.9852 80.9845 17.979C81.1277 17.9707 81.2958 17.9562 81.358 17.9458C81.4203 17.9334 81.5095 17.9126 81.5552 17.9002C81.6008 17.8877 81.6755 17.8566 81.7211 17.8317C81.7668 17.8068 81.8311 17.7549 81.8622 17.7176C81.9017 17.6678 81.9245 17.6159 81.9328 17.5433C81.939 17.4748 81.9328 17.4126 81.91 17.3565C81.8934 17.3109 81.856 17.2528 81.8311 17.23C81.8041 17.2051 81.7419 17.1615 81.69 17.1345C81.6381 17.1055 81.5406 17.064 81.4722 17.0411C81.4037 17.0183 81.2958 16.983 81.2335 16.9664C81.1713 16.9478 80.9991 16.9042 80.8497 16.8689C80.7003 16.8357 80.5343 16.7963 80.4762 16.7839C80.4202 16.7735 80.3351 16.7548 80.2894 16.7444C80.2438 16.7341 80.1214 16.705 80.0197 16.6822C79.918 16.6573 79.7728 16.6241 79.6981 16.6075L79.6697 16.6004C79.5942 16.5816 79.4875 16.555 79.418 16.5349C79.3391 16.512 79.2063 16.4747 79.1275 16.4498C79.0486 16.427 78.8806 16.3709 78.754 16.3294C78.6274 16.2859 78.4552 16.2174 78.3701 16.1759C78.2851 16.1344 78.1875 16.0846 78.1523 16.0638C78.117 16.0431 78.063 16.0099 78.0278 15.9871C77.9946 15.9643 77.951 15.9352 77.9344 15.9207C77.9178 15.9082 77.8327 15.8418 77.7477 15.7734C77.6626 15.7049 77.5505 15.6032 77.4987 15.5472C77.4468 15.4912 77.3825 15.4185 77.3534 15.3853C77.3244 15.3501 77.2829 15.2961 77.2621 15.2609C77.2404 15.2292 77.1978 15.1541 77.1633 15.0932L77.1584 15.0845C77.1252 15.0222 77.0795 14.9247 77.0588 14.8666C77.038 14.8106 77.0007 14.6923 76.9779 14.6073C76.955 14.5222 76.926 14.3437 76.9135 14.213C76.9032 14.0823 76.899 13.8624 76.9052 13.7254C76.9115 13.5885 76.9281 13.4162 76.9405 13.3415C76.953 13.2668 76.9862 13.132 77.0152 13.0407C77.0443 12.9494 77.1127 12.7813 77.1667 12.6672C77.2206 12.5531 77.3244 12.3767 77.397 12.275C77.4696 12.1734 77.6003 12.0198 77.6854 11.9327C77.7705 11.8455 77.9116 11.721 77.9967 11.6567C78.0817 11.5924 78.227 11.4969 78.3183 11.443C78.4096 11.387 78.5735 11.3019 78.6814 11.2521C78.7893 11.2002 78.9988 11.1193 79.1482 11.0695C79.2976 11.0218 79.4698 10.9699 79.5321 10.9575C79.5943 10.945 79.6939 10.9243 79.75 10.9139C79.8081 10.9035 79.9014 10.8848 79.9575 10.8745C80.0156 10.8641 80.1546 10.8454 80.2708 10.835L80.3203 10.8305Z" fill="#106FA4"/>
<path d="M29.2151 26.4758C29.323 26.4634 29.4641 26.4509 29.5263 26.4468C29.5886 26.4426 29.8728 26.4426 30.1592 26.4468C30.4434 26.4509 30.7381 26.4634 30.8128 26.4758C30.8875 26.4883 31.0141 26.507 31.0929 26.5194C31.1717 26.5298 31.3274 26.5588 31.4353 26.5817C31.5432 26.6045 31.6552 26.6315 31.6843 26.6418C31.7133 26.6501 31.7922 26.675 31.8606 26.6937C31.9291 26.7124 32.0411 26.7477 32.1096 26.7705C32.1781 26.7954 32.2756 26.8327 32.3275 26.8535C32.3794 26.8763 32.4582 26.9095 32.5039 26.9282C32.5495 26.9468 32.6574 26.9987 32.7425 27.0444C32.8275 27.0879 32.9769 27.173 33.0745 27.2311C33.172 27.2913 33.2695 27.3535 33.2923 27.3722C33.3151 27.393 33.3857 27.4448 33.4479 27.4926C33.5102 27.5382 33.6492 27.6585 33.7571 27.7581C33.865 27.8577 34.004 27.9988 34.1845 28.2022L34.0704 28.308C34.0061 28.3682 33.919 28.4491 33.8733 28.4885C33.8277 28.5279 33.7156 28.6275 33.6243 28.7064C33.533 28.7852 33.421 28.8848 33.3753 28.9263C33.3297 28.9678 33.2031 29.0778 33.0952 29.1732C32.9873 29.2666 32.8711 29.3683 32.8358 29.3994C32.8006 29.4305 32.6449 29.5696 32.203 29.9617L32.01 29.7708C31.9063 29.6671 31.7527 29.5322 31.6739 29.4741C31.595 29.416 31.4809 29.3392 31.4249 29.306C31.3668 29.2708 31.261 29.2147 31.1863 29.1795C31.1116 29.1442 30.9954 29.0965 30.9269 29.0736C30.8584 29.0487 30.7194 29.0156 30.6157 28.9948C30.4683 28.9678 30.3501 28.9637 30.0451 28.972C29.7463 28.9803 29.6239 28.9927 29.4952 29.0259C29.4039 29.0508 29.2773 29.0903 29.2151 29.1151C29.1528 29.14 29.0449 29.1919 28.9765 29.2313C28.908 29.2687 28.8043 29.3372 28.7482 29.3807C28.6901 29.4243 28.5885 29.5198 28.52 29.5924C28.4515 29.665 28.3768 29.748 28.3561 29.777C28.3332 29.804 28.2668 29.9202 28.2088 30.0343C28.1507 30.1485 28.0822 30.3082 28.0573 30.3871C28.0324 30.4659 27.9992 30.6215 27.9805 30.7294C27.9639 30.8394 27.9494 31.0594 27.9494 31.2274C27.9494 31.4038 27.9618 31.6051 27.9805 31.715C27.9992 31.8188 28.0324 31.9619 28.0552 32.0366C28.078 32.1113 28.1112 32.2047 28.1299 32.2441C28.1465 32.2836 28.1776 32.35 28.1963 32.3894C28.2171 32.4288 28.2461 32.4848 28.2627 32.5139C28.2793 32.5429 28.3187 32.6031 28.3519 32.6488C28.3851 32.6944 28.4785 32.8002 28.5594 32.8832C28.6403 32.9683 28.7731 33.0803 28.852 33.1343C28.9308 33.1882 29.0304 33.2463 29.0698 33.265C29.1093 33.2837 29.184 33.3169 29.2358 33.3397C29.2877 33.3625 29.4122 33.4019 29.516 33.4268C29.6799 33.4704 29.7546 33.4766 30.1073 33.4766C30.3812 33.4787 30.5451 33.4704 30.6157 33.4517C30.6717 33.4372 30.7609 33.4144 30.8128 33.4019C30.8647 33.3895 30.9622 33.3625 31.0307 33.3397C31.0991 33.3169 31.1717 33.2899 31.1904 33.2795C31.2257 33.2629 31.2278 33.1862 31.2278 30.9577H33.9044L33.9065 34.8482L33.7447 34.954C33.6554 35.0142 33.5164 35.0992 33.4376 35.1428C33.3587 35.1885 33.2259 35.2549 33.1471 35.2922C33.0682 35.3296 32.9749 35.3731 32.9396 35.3877C32.9043 35.4022 32.8338 35.4333 32.7777 35.4582C32.7238 35.481 32.5661 35.5412 32.425 35.5868C32.286 35.6346 32.1449 35.6802 32.1096 35.6885C32.0743 35.6989 31.9581 35.7279 31.8502 35.757C31.7424 35.784 31.5826 35.8213 31.4975 35.84L31.4823 35.843C31.3979 35.8594 31.2819 35.8821 31.2174 35.8919C31.1489 35.9043 31.0265 35.923 30.9477 35.9354C30.8688 35.9479 30.7236 35.9666 30.626 35.979C30.5285 35.9894 30.2214 35.9998 29.9413 35.9998C29.6612 35.9998 29.3541 35.9894 29.2566 35.979C29.1591 35.9666 29.02 35.9479 28.9453 35.9354C28.8707 35.923 28.7628 35.9043 28.7067 35.8939C28.6486 35.8815 28.5283 35.8545 28.437 35.8338C28.3457 35.8109 28.188 35.7674 28.0843 35.7342C27.9805 35.701 27.8145 35.6387 27.7108 35.5951C27.607 35.5536 27.4722 35.4935 27.4099 35.4624C27.3477 35.4312 27.2398 35.3752 27.1713 35.3358C27.1028 35.2984 26.9638 35.2113 26.86 35.1428C26.7563 35.0764 26.6152 34.9768 26.5447 34.9229C26.4741 34.871 26.2957 34.7071 26.1483 34.5577C26.0031 34.4104 25.8454 34.2423 25.7998 34.1842C25.7541 34.1282 25.6524 33.9829 25.5736 33.8626C25.4947 33.7422 25.3827 33.5513 25.3246 33.4372C25.2665 33.3231 25.1939 33.1696 25.1648 33.0949C25.1337 33.0202 25.0922 32.9081 25.0694 32.8459C25.0466 32.7836 25.0092 32.6674 24.9864 32.5865C24.9636 32.5077 24.9345 32.3894 24.9221 32.3271C24.9096 32.2649 24.8909 32.1632 24.8785 32.1051C24.8681 32.0449 24.8474 31.8624 24.8349 31.7005C24.8204 31.5241 24.8162 31.2419 24.8245 31.0096C24.8308 30.7792 24.8536 30.5116 24.8785 30.3663C24.8992 30.2294 24.9366 30.0468 24.9573 29.9617C24.9802 29.8766 25.0237 29.7314 25.0549 29.6401C25.0839 29.5488 25.1441 29.3953 25.1856 29.2977C25.225 29.2002 25.279 29.084 25.3039 29.0384C25.3288 28.9927 25.3765 28.9035 25.4117 28.8413C25.4449 28.779 25.5217 28.6524 25.584 28.5611C25.6441 28.4698 25.7292 28.3536 25.7686 28.3018C25.8101 28.2499 25.8703 28.1752 25.9056 28.1358C25.9388 28.0964 26.0384 27.9926 26.1234 27.9075C26.2085 27.8225 26.3123 27.7229 26.3517 27.6876C26.3911 27.6523 26.5052 27.5631 26.6048 27.4863C26.7065 27.4096 26.8372 27.3162 26.8953 27.2809L26.9054 27.2747C26.9638 27.2384 27.0342 27.1947 27.0675 27.1751C27.1028 27.1564 27.2377 27.0859 27.3684 27.0195C27.4991 26.9531 27.6734 26.8722 27.7523 26.841C27.8311 26.8078 27.9639 26.7601 28.0428 26.7352C28.1216 26.7082 28.2772 26.6647 28.3851 26.6356C28.493 26.6086 28.6341 26.5754 28.6964 26.563C28.7586 26.5505 28.8561 26.5298 28.9142 26.5194C28.9702 26.509 29.1072 26.4883 29.2151 26.4758Z" fill="#106FA4"/>
<path d="M71.0768 26.4758C71.2033 26.4634 71.3569 26.4509 71.4191 26.4468C71.4814 26.4426 71.7802 26.4426 72.0831 26.4468C72.386 26.4489 72.7035 26.4634 72.7886 26.4738C72.8737 26.4862 73.023 26.507 73.1206 26.5194C73.2181 26.5319 73.3343 26.5485 73.3799 26.5588C73.4256 26.5692 73.519 26.5879 73.5874 26.6003C73.6559 26.6128 73.8094 26.646 73.9298 26.675C74.0501 26.7041 74.2182 26.7497 74.3033 26.7767C74.3884 26.8037 74.5336 26.8535 74.6249 26.8867C74.7162 26.9219 74.8282 26.9655 74.8739 26.9842C74.9158 27.0014 75.0243 27.0536 75.1254 27.1022L75.1519 27.1149C75.2577 27.1689 75.3532 27.2228 75.3636 27.2332C75.3719 27.2456 75.3573 27.3058 75.3304 27.3681C75.3055 27.4303 75.2619 27.5341 75.237 27.5963C75.2121 27.6585 75.1747 27.7478 75.154 27.7934C75.1333 27.8391 75.0544 28.03 74.9776 28.2188C74.9009 28.4076 74.8179 28.6089 74.7909 28.6649C74.766 28.723 74.7369 28.7915 74.7286 28.8205C74.7213 28.8463 74.6926 28.9132 74.6644 28.9787L74.6539 29.0031C74.6207 29.0736 74.5938 29.1359 74.5938 29.1421C74.5938 29.1483 74.573 29.1961 74.5502 29.2521C74.5253 29.306 74.4921 29.3807 74.4776 29.4181C74.461 29.4534 74.4444 29.4845 74.4381 29.4845C74.4327 29.4845 74.366 29.4539 74.2821 29.4154L74.2472 29.3994C74.1456 29.3517 73.9671 29.2728 73.8468 29.2251C73.7264 29.1753 73.5584 29.111 73.4733 29.084C73.3882 29.055 73.2243 29.0072 73.1102 28.9782C72.9961 28.9492 72.828 28.9097 72.7367 28.8931C72.6454 28.8745 72.4441 28.8454 72.2906 28.8288C72.1371 28.8122 71.9503 28.7998 71.8756 28.7998C71.8009 28.7998 71.6557 28.8101 71.554 28.8226C71.4523 28.833 71.3299 28.8537 71.2843 28.8662C71.2386 28.8786 71.1743 28.8973 71.139 28.9077C71.1082 28.9185 71.0601 28.9373 71.0235 28.9515L71.0083 28.9575C70.973 28.9741 70.9087 29.0176 70.8672 29.055C70.8257 29.0902 70.7801 29.1442 70.7655 29.1732C70.751 29.2023 70.7344 29.2604 70.7261 29.304C70.7199 29.3455 70.722 29.4181 70.7344 29.4637C70.7469 29.5156 70.7842 29.5737 70.8319 29.6194C70.8755 29.6588 70.9481 29.7107 70.9938 29.7314C71.0394 29.7542 71.1141 29.7853 71.1598 29.8019C71.2054 29.8185 71.3175 29.8517 71.4088 29.8746C71.5 29.8995 71.6536 29.9368 71.7511 29.9596C71.8486 29.9825 71.9731 30.0115 72.0312 30.024C72.0873 30.0364 72.303 30.0779 72.5085 30.1194C72.7139 30.1588 73.0023 30.2252 73.1517 30.2647C73.3011 30.302 73.4443 30.3394 73.4733 30.3477C73.5024 30.3539 73.6414 30.3975 73.7845 30.4431C73.9277 30.4888 74.0854 30.5448 74.1373 30.5676C74.1892 30.5925 74.2825 30.6361 74.3448 30.6672C74.407 30.6983 74.4962 30.744 74.5419 30.7689C74.5875 30.7938 74.6954 30.8685 74.7826 30.9328C74.8697 30.9971 74.9963 31.1009 75.0627 31.1631C75.1312 31.2253 75.2411 31.3436 75.3096 31.4266C75.3781 31.5096 75.4673 31.6445 75.5088 31.7296C75.5524 31.8126 75.6043 31.9329 75.6271 31.9951C75.6499 32.0574 75.679 32.1508 75.6914 32.2026C75.7018 32.2545 75.7246 32.3479 75.737 32.4101C75.7516 32.4765 75.764 32.6799 75.764 32.8977C75.764 33.1218 75.7536 33.3169 75.737 33.3853C75.726 33.4404 75.7069 33.5199 75.694 33.5734L75.6893 33.5928C75.679 33.6447 75.6499 33.7422 75.6271 33.8107C75.6043 33.8792 75.5482 34.0099 75.5047 34.1012C75.4611 34.1925 75.4009 34.3087 75.3719 34.3606C75.3407 34.4124 75.266 34.5203 75.2059 34.5992C75.1436 34.678 75.0357 34.8005 74.9631 34.8689C74.8905 34.9374 74.8013 35.0183 74.7639 35.0515C74.7286 35.0826 74.6228 35.1594 74.5315 35.2217C74.4402 35.2839 74.3572 35.3358 74.3448 35.3358C74.3323 35.3358 74.322 35.342 74.3178 35.3524C74.3157 35.3607 74.2473 35.4022 74.1684 35.4437C74.0896 35.4852 73.963 35.5433 73.8883 35.5744C73.8136 35.6055 73.7264 35.6429 73.6912 35.6574C73.6559 35.674 73.5584 35.7093 73.4733 35.7383C73.3882 35.7653 73.2513 35.8047 73.1724 35.8234C73.0936 35.8421 72.9608 35.869 72.882 35.8836C72.8031 35.9002 72.6703 35.923 72.5915 35.9354C72.5126 35.9479 72.3611 35.9666 72.2595 35.979C72.1578 35.9894 71.8092 35.9998 71.4855 35.9998C71.1639 35.9998 70.8049 35.9894 70.6867 35.979C70.5705 35.9666 70.4003 35.9479 70.309 35.9354C70.2177 35.9251 70.0912 35.9064 70.0289 35.896C69.9667 35.8856 69.8256 35.8607 69.7177 35.8441C69.6098 35.8255 69.4417 35.7923 69.3442 35.7694C69.2467 35.7466 69.1409 35.7217 69.1056 35.7113C69.0703 35.703 69.006 35.6844 68.9603 35.6698C68.9147 35.6574 68.7985 35.6242 68.701 35.5931C68.6035 35.564 68.4499 35.5122 68.3586 35.4769C68.2673 35.4416 68.1324 35.3856 68.0577 35.3524C67.983 35.3192 67.8544 35.2569 67.7714 35.2154C67.6884 35.1739 67.595 35.12 67.5079 35.0515L67.5992 34.8461C67.649 34.7341 67.7154 34.5847 67.7486 34.5162C67.7797 34.4477 67.8233 34.3502 67.8461 34.2983C67.8689 34.2464 67.9104 34.1489 67.9395 34.0805C67.9685 34.012 68.0245 33.8833 68.066 33.7962C68.1075 33.707 68.1407 33.6302 68.1407 33.624C68.1407 33.6177 68.1677 33.5555 68.2009 33.4849L68.2142 33.4559C68.2459 33.3867 68.285 33.3012 68.3067 33.2505C68.3316 33.1945 68.3731 33.1011 68.4001 33.043C68.425 32.987 68.452 32.9206 68.4582 32.8977C68.4644 32.8749 68.4831 32.8459 68.4976 32.8313C68.5184 32.8127 68.5682 32.8293 68.7321 32.9123C68.8462 32.9704 69.0288 33.0575 69.1367 33.1073C69.2446 33.155 69.4645 33.238 69.6243 33.2899C69.7841 33.3418 69.9418 33.3937 69.9771 33.404C70.0123 33.4123 70.0767 33.431 70.1223 33.4434C70.1679 33.4559 70.2426 33.4746 70.2883 33.487C70.3339 33.4995 70.4232 33.5181 70.4854 33.5306C70.5477 33.541 70.7012 33.5659 70.8278 33.5866C70.9938 33.6115 71.1888 33.6219 71.5436 33.6219C71.942 33.6219 72.0624 33.6157 72.1972 33.5845C72.2885 33.5638 72.4047 33.5264 72.4545 33.5015C72.5043 33.4787 72.5728 33.4268 72.606 33.3916C72.6371 33.3542 72.6724 33.3003 72.6848 33.2712C72.6973 33.2422 72.7056 33.1882 72.7056 33.153C72.7056 33.1156 72.6869 33.0471 72.6662 33.0015C72.6454 32.9558 72.6018 32.8957 72.5686 32.8666C72.5354 32.8376 72.4566 32.7898 72.3943 32.7587C72.3321 32.7276 72.1952 32.6799 72.0935 32.6488C71.9974 32.6194 71.8533 32.5807 71.7659 32.5573L71.7511 32.5533C71.666 32.5305 71.5581 32.5056 71.5125 32.4952C71.4669 32.4848 71.332 32.4579 71.2116 32.433C71.0913 32.4081 70.9149 32.3686 70.8174 32.3458C70.7199 32.323 70.5995 32.2939 70.5477 32.2815C70.4958 32.269 70.3049 32.2172 70.1223 32.1674C69.9397 32.1176 69.7239 32.0532 69.6451 32.0263C69.5662 31.9993 69.4438 31.9557 69.3753 31.9329C69.3069 31.908 69.1803 31.8541 69.0952 31.8105C69.0101 31.769 68.8545 31.6777 68.7528 31.6113C68.6429 31.5387 68.4707 31.3913 68.3358 31.2585C68.2071 31.1341 68.064 30.9701 68.0142 30.8954C67.9664 30.8207 67.9063 30.7149 67.8814 30.6568C67.8565 30.6008 67.8171 30.497 67.7922 30.4286C67.7693 30.3601 67.7403 30.2584 67.7278 30.2003C67.7154 30.1443 67.6967 30.053 67.6843 29.9991C67.6739 29.943 67.6635 29.7439 67.6635 29.553C67.6635 29.3413 67.676 29.14 67.6946 29.0384C67.7112 28.9471 67.7424 28.8122 67.7652 28.7375C67.7859 28.6628 67.8233 28.557 67.8461 28.4989C67.8689 28.4429 67.9166 28.335 67.954 28.2603C67.9913 28.1856 68.0806 28.0424 68.1532 27.9387C68.2258 27.837 68.3337 27.7 68.3939 27.6378C68.4541 27.5756 68.5454 27.4863 68.5972 27.4386C68.6491 27.393 68.7653 27.3037 68.8566 27.2394C68.9479 27.1751 69.0599 27.1025 69.1056 27.0755C69.1512 27.0506 69.2633 26.9925 69.3546 26.9468C69.4459 26.9033 69.5911 26.8369 69.6762 26.8037C69.7613 26.7684 69.8878 26.7248 69.9563 26.7041C70.0248 26.6813 70.1513 26.646 70.2364 26.6252C70.3215 26.6024 70.4522 26.5734 70.5269 26.5609C70.6016 26.5464 70.7033 26.5277 70.7551 26.5173C70.807 26.507 70.9502 26.4883 71.0768 26.4758Z" fill="#106FA4"/>
<path d="M13.5078 31.1449C13.4393 30.9457 13.348 30.6905 13.3044 30.5805L13.2214 30.3772H21.4548V35.7098H17.8755C15.9064 35.7098 14.2838 35.7139 14.2693 35.7201C14.2506 35.7284 14.2465 35.6952 14.2527 35.5811C14.2568 35.4981 14.2485 35.2242 14.234 34.9732C14.2216 34.7221 14.1967 34.3818 14.1801 34.2158C14.1635 34.0498 14.1303 33.7884 14.1074 33.6348C14.0846 33.4813 14.0327 33.1866 13.9933 32.9812C13.9518 32.7758 13.8833 32.4584 13.8377 32.2758C13.792 32.0932 13.7257 31.8462 13.6904 31.7259C13.6572 31.6056 13.5742 31.3441 13.5078 31.1449Z" fill="#623A60"/>
<path fillRule="evenodd" clip-rule="evenodd" d="M25.1689 10.9974H28.219L28.2294 14.282L28.4971 13.9832C28.6444 13.8193 28.8498 13.591 28.9535 13.4769C29.0573 13.3649 29.1984 13.2092 29.2669 13.1346C29.3353 13.0599 29.4619 12.9208 29.547 12.8254C29.632 12.7299 29.7192 12.6324 29.7399 12.6075C29.7607 12.5826 29.8603 12.4747 29.9599 12.3668C30.0595 12.2589 30.1778 12.1282 30.2234 12.0763C30.267 12.0245 30.3271 11.9601 30.3562 11.9311C30.3852 11.902 30.4454 11.8377 30.489 11.7858C30.5326 11.734 30.6176 11.6406 30.6757 11.5784C30.7338 11.5161 30.8231 11.4165 30.8729 11.3605C30.9247 11.3024 31.0202 11.1986 31.2069 10.9974H32.8772C33.9707 10.9974 34.5517 11.0036 34.5579 11.0181C34.5642 11.0285 34.533 11.0741 34.4895 11.1177C34.448 11.1613 34.3463 11.2692 34.2674 11.3605C34.1886 11.4518 34.118 11.5306 34.1118 11.5369C34.1056 11.5431 33.9935 11.6634 33.8628 11.8066C33.7321 11.9498 33.6201 12.0701 33.6138 12.0763C33.6076 12.0826 33.562 12.1324 33.5122 12.1905C33.4603 12.2465 33.3399 12.3814 33.2424 12.4892C33.1449 12.5971 33.008 12.7465 32.9374 12.8212C32.8689 12.8959 32.7714 13.0038 32.7195 13.0619C32.6697 13.118 32.6013 13.1947 32.566 13.2321C32.5307 13.2673 32.4477 13.3607 32.3793 13.4375C32.3108 13.5163 32.1987 13.6408 32.1282 13.7155C32.0597 13.7902 31.9622 13.896 31.9103 13.9541C31.8605 14.0102 31.7962 14.0807 31.7671 14.1098C31.7381 14.1388 31.6738 14.2094 31.624 14.2654C31.5721 14.3235 31.4518 14.4584 31.3542 14.5663C31.2567 14.6741 31.1218 14.8215 30.9372 15.0227L31.3169 15.529C31.5244 15.8091 31.7111 16.0581 31.7298 16.0851C31.7505 16.1121 31.9331 16.3569 32.1386 16.6308C32.344 16.9047 32.5203 17.1392 32.5286 17.1495C32.539 17.1599 32.7175 17.3985 32.925 17.6786C33.1345 17.9588 33.3171 18.2015 33.3296 18.2181C33.3441 18.2347 33.481 18.4173 33.6346 18.6227C33.7881 18.8282 33.9188 19.0004 33.9251 19.0066C33.9313 19.0128 33.9728 19.0688 34.0973 19.2452L34.1346 19.1622C34.1554 19.1166 34.172 19.073 34.1741 19.0626C34.1741 19.0543 34.2114 18.9692 34.2571 18.8717C34.3027 18.7742 34.3401 18.6912 34.3401 18.685C34.3401 18.6788 34.365 18.6207 34.394 18.5543C34.4231 18.4899 34.4583 18.4069 34.4749 18.3737C34.4895 18.3405 34.5206 18.2679 34.5455 18.2119C34.5704 18.158 34.6077 18.075 34.6285 18.0252C34.6492 17.9774 34.6928 17.8778 34.7239 17.8031C34.755 17.7284 34.8069 17.6081 34.8422 17.5334C34.8754 17.4587 34.9273 17.3425 34.9563 17.274C34.9854 17.2056 35.0248 17.1122 35.0455 17.0665C35.0663 17.0209 35.1285 16.8756 35.1866 16.7449C35.2427 16.6142 35.3194 16.442 35.3547 16.3611C35.39 16.2801 35.4294 16.1992 35.4398 16.1785C35.4522 16.1598 35.4605 16.1328 35.4605 16.1224C35.4605 16.1121 35.4875 16.0436 35.5207 15.971C35.5539 15.9004 35.6016 15.7946 35.6265 15.7386C35.6514 15.6805 35.6846 15.6058 35.6991 15.5726C35.7157 15.5394 35.751 15.4564 35.7801 15.39C35.8091 15.3257 35.834 15.2676 35.834 15.2614C35.834 15.2551 35.8672 15.1784 35.9087 15.0891C35.9502 15.002 36.0062 14.8733 36.0353 14.8049C36.0643 14.7364 36.1058 14.6389 36.1286 14.587C36.1515 14.5351 36.1909 14.4459 36.2179 14.3899C36.2428 14.3318 36.2843 14.2384 36.3071 14.1824C36.3299 14.1243 36.3839 14.0039 36.4254 13.9126C36.4669 13.8214 36.5084 13.728 36.5187 13.7052C36.5291 13.6823 36.5665 13.5931 36.6038 13.508C36.6391 13.423 36.6868 13.3109 36.7096 13.259C36.7325 13.2072 36.7636 13.1366 36.7781 13.1034C36.7947 13.0702 36.8258 12.9976 36.8486 12.9416C36.8735 12.8876 36.9088 12.8046 36.9316 12.7548C36.9524 12.7071 36.9897 12.6262 37.0126 12.5743C37.0354 12.5224 37.079 12.4208 37.1101 12.3461C37.1412 12.2714 37.1889 12.1593 37.218 12.0971C37.247 12.0348 37.3134 11.8854 37.3632 11.7651C37.4151 11.6448 37.4753 11.5099 37.496 11.4642C37.5168 11.4186 37.5686 11.2982 37.6931 11.0077L40.7516 10.9974L40.8055 11.1156C40.8346 11.182 40.9134 11.3626 40.9798 11.5161C41.0462 11.6697 41.1292 11.8585 41.1645 11.9352C41.1998 12.0141 41.2288 12.0805 41.2288 12.0867C41.2288 12.0929 41.2558 12.1552 41.289 12.2257C41.3222 12.2984 41.3927 12.4602 41.4467 12.5847C41.5006 12.7092 41.5629 12.8544 41.5857 12.9063C41.6085 12.9582 41.6542 13.0578 41.6874 13.1283C41.7206 13.2009 41.7476 13.2632 41.7476 13.2694C41.7476 13.2756 41.7662 13.3213 41.7891 13.3732C41.8119 13.425 41.8513 13.5101 41.8741 13.5641C41.899 13.6201 41.9882 13.8214 42.0733 14.0164C42.1584 14.2114 42.2455 14.4086 42.2663 14.4563C42.2891 14.5061 42.3078 14.5497 42.3078 14.5559C42.3078 14.5621 42.3348 14.6243 42.368 14.6949C42.4012 14.7675 42.453 14.8796 42.4821 14.9439C42.5111 15.0103 42.536 15.0684 42.536 15.0746C42.536 15.0808 42.5609 15.1389 42.59 15.2033C42.619 15.2697 42.6522 15.3423 42.6626 15.3651C42.6709 15.3879 42.7165 15.4875 42.7643 15.5871C42.8099 15.6888 42.8473 15.7739 42.8473 15.7801C42.8473 15.7863 42.868 15.834 42.8908 15.888C42.9157 15.944 42.951 16.0249 42.9718 16.0706C42.9925 16.1162 43.0382 16.2241 43.0755 16.3092C43.1108 16.3943 43.1606 16.5063 43.1834 16.5582C43.2062 16.6101 43.2477 16.6972 43.2726 16.7553C43.2996 16.8113 43.3452 16.9192 43.3764 16.9939C43.4075 17.0686 43.4511 17.1703 43.4739 17.2222C43.4967 17.274 43.5382 17.3653 43.5652 17.4234C43.5922 17.4836 43.615 17.5375 43.615 17.5438C43.615 17.55 43.6482 17.6247 43.6876 17.7098C43.727 17.7948 43.7602 17.8695 43.7602 17.8758C43.7602 17.882 43.7934 17.9567 43.8329 18.0418C43.8723 18.1268 43.9055 18.2015 43.9055 18.2078C43.9055 18.214 43.9283 18.27 43.9573 18.3322C43.9864 18.3945 44.0341 18.5003 44.0632 18.5646C44.0922 18.631 44.1358 18.7306 44.1586 18.7887C44.1814 18.8448 44.2209 18.9381 44.2478 18.9962C44.2727 19.0522 44.3184 19.1518 44.3474 19.2141C44.3765 19.2763 44.4242 19.3884 44.4553 19.4631C44.4865 19.5378 44.53 19.6395 44.5529 19.6913C44.5757 19.7432 44.611 19.822 44.6317 19.8677C44.6525 19.9133 44.6836 19.988 44.7022 20.0337C44.7209 20.0793 44.7354 20.1229 44.7354 20.1312C44.7354 20.1416 44.0196 20.1478 41.5504 20.1499L41.5255 20.1022C41.5131 20.0752 41.484 20.0109 41.4591 19.9548C41.4342 19.9009 41.4156 19.8511 41.4156 19.8407C41.4156 19.8324 41.3595 19.6809 41.289 19.5046C41.2205 19.3282 41.1396 19.1186 41.1105 19.0377C41.0815 18.9568 41.0462 18.8634 41.0317 18.8302C41.0172 18.797 40.9881 18.7203 40.9259 18.5605L37.4836 18.548L37.3757 18.824C37.3155 18.9755 37.1993 19.2722 37.1184 19.4838C37.0375 19.6955 36.9565 19.905 36.9399 19.9507C36.9254 19.9963 36.9005 20.0586 36.8611 20.1478H31.1654L31.1343 20.0959C31.1177 20.0669 31.0886 20.0275 31.0741 20.0067C31.0575 19.988 30.9517 19.849 30.8417 19.7017C30.7297 19.5544 30.5927 19.3718 30.5388 19.2971C30.4828 19.2224 30.4267 19.1477 30.4122 19.1311C30.3977 19.1145 30.3043 18.99 30.2006 18.8531C30.0968 18.7182 29.9661 18.5439 29.9101 18.4671C29.852 18.3883 29.6071 18.0604 29.3623 17.7367C29.1175 17.4151 28.9141 17.1454 28.91 17.1392C28.9037 17.1329 28.8871 17.1475 28.8705 17.1703C28.8539 17.1931 28.8042 17.2491 28.7627 17.2948C28.7191 17.3404 28.6112 17.4608 28.5199 17.5645C28.4286 17.6662 28.3228 17.7824 28.219 17.8965V20.1478H25.1689L25.1689 10.9974ZM39.0916 14.3588C39.0564 14.4563 39.0086 14.5725 38.9879 14.6181C38.9692 14.6638 38.9319 14.7613 38.9049 14.836C38.88 14.9107 38.8468 14.9999 38.8323 15.0331C38.8178 15.0663 38.7348 15.278 38.6476 15.5C38.5605 15.722 38.4899 15.9108 38.4899 15.9191C38.4899 15.9295 38.4712 15.9793 38.4463 16.0332C38.4214 16.0892 38.3945 16.1515 38.3862 16.1743C38.3758 16.1971 38.3633 16.2366 38.3571 16.2615L38.3447 16.3092H40.0669C39.9839 16.0913 39.9403 15.9897 39.9195 15.9399C39.8988 15.8921 39.8801 15.8423 39.8801 15.832C39.8801 15.8216 39.8635 15.7718 39.8407 15.722C39.8199 15.6743 39.7888 15.5975 39.7701 15.5518C39.7515 15.5062 39.6664 15.2821 39.5793 15.0539C39.49 14.8256 39.3697 14.5123 39.3095 14.3588C39.2099 14.1077 39.1975 14.0849 39.1788 14.1305C39.1684 14.1596 39.129 14.2612 39.0916 14.3588ZM45.2127 10.9974H46.4991C47.7047 10.9974 47.7856 10.9995 47.8001 11.0326C47.8084 11.0534 47.8541 11.1322 47.9039 11.209C47.9537 11.2879 47.9931 11.3605 47.9931 11.3709C47.9931 11.3812 48.0014 11.3916 48.0138 11.3916C48.0263 11.3916 48.0346 11.402 48.0346 11.4124C48.0346 11.4227 48.0678 11.485 48.1072 11.5472C48.1466 11.6095 48.1798 11.6717 48.1798 11.6821C48.1798 11.6925 48.1881 11.7049 48.1964 11.707C48.2068 11.7112 48.2836 11.8294 48.3707 11.9726C48.4558 12.1158 48.5907 12.3357 48.6674 12.4602C48.7442 12.5847 48.8231 12.7175 48.8438 12.7507C48.8625 12.7839 48.9206 12.8773 48.9704 12.9582C49.0202 13.037 49.07 13.118 49.0824 13.1387C49.0949 13.1595 49.1592 13.2653 49.2277 13.3773C49.2961 13.4894 49.4725 13.7778 49.6198 14.0164C49.7651 14.255 49.9041 14.4853 49.9269 14.5248C49.9518 14.5642 50.0016 14.6472 50.039 14.7053C50.0784 14.7654 50.1095 14.8194 50.1095 14.8256C50.1095 14.8318 50.1199 14.8484 50.1323 14.8609C50.1448 14.8754 50.2797 15.0933 50.4311 15.3443C50.5826 15.5954 50.7154 15.8029 50.7258 15.8071C50.7341 15.8112 50.7714 15.7676 50.8067 15.7137C50.842 15.6597 50.9001 15.5622 50.9395 15.5C50.9768 15.4377 51.0225 15.3568 51.0432 15.3236C51.0619 15.2904 51.1698 15.1078 51.2818 14.919C51.3939 14.7302 51.5744 14.4272 51.6844 14.2446C51.7944 14.062 51.8939 13.894 51.9064 13.8712C51.9188 13.8483 52.0143 13.6844 52.1222 13.508C52.228 13.3317 52.3338 13.1532 52.3546 13.1138C52.3774 13.0744 52.4044 13.0308 52.4127 13.0204C52.421 13.0101 52.448 12.9665 52.4687 12.9271C52.4915 12.8876 52.643 12.6303 52.8069 12.3565C52.9688 12.0826 53.1244 11.8232 53.1514 11.7796C53.1783 11.7381 53.2012 11.6925 53.2012 11.6821C53.2012 11.6717 53.2095 11.6614 53.2219 11.6614C53.2344 11.6614 53.2427 11.651 53.2427 11.6406C53.2427 11.6302 53.2945 11.5327 53.3588 11.4269C53.4232 11.3231 53.5062 11.1841 53.6078 11.0077L56.1579 10.9974L56.1745 11.9352C56.1828 12.4519 56.1891 14.5123 56.1891 20.1478H53.3671L53.3651 19.6747C53.363 19.4154 53.3547 18.492 53.336 16.0374L53.0808 16.469C52.9418 16.7055 52.8111 16.9296 52.7903 16.9628C52.7716 16.996 52.7488 17.0271 52.7384 17.0292C52.7301 17.0333 52.7239 17.0458 52.7239 17.0562C52.7239 17.0665 52.6596 17.1827 52.5828 17.3093C52.5061 17.438 52.3733 17.66 52.2903 17.8031C52.2052 17.9463 52.1139 18.0978 52.089 18.1393C52.062 18.1829 52.0392 18.2285 52.0392 18.2389C52.0392 18.2492 52.0309 18.2596 52.0184 18.2596C52.006 18.2596 51.9977 18.2658 51.9977 18.2741C51.9977 18.2845 51.9126 18.436 51.8089 18.6124C51.7031 18.7887 51.564 19.0232 51.3835 19.3282L50.0161 19.3407L49.6115 18.6933C49.3895 18.3364 49.2048 18.0335 49.2007 18.0169C49.1986 18.0023 49.1882 17.9899 49.1758 17.9899C49.1633 17.9899 49.155 17.9795 49.155 17.9691C49.155 17.9588 49.1384 17.9235 49.1156 17.8903C49.0949 17.8592 49.0409 17.7741 48.9953 17.6994C48.9496 17.6247 48.8521 17.467 48.7774 17.3467C48.7027 17.2263 48.5554 16.9877 48.4496 16.8175C48.3437 16.6453 48.2068 16.4275 48.0325 16.1536L48.0346 20.1478H45.2127V10.9974ZM57.6643 10.9953L60.1999 11.0036C61.8391 11.0098 62.7873 11.0202 62.8807 11.0347C62.9595 11.0472 63.082 11.0658 63.1504 11.0783C63.2189 11.0907 63.36 11.1177 63.4617 11.1405C63.5633 11.1634 63.7418 11.2111 63.8559 11.2464C63.97 11.2837 64.1049 11.3314 64.1568 11.3543C64.2086 11.3771 64.3394 11.4393 64.4473 11.4912C64.5552 11.541 64.6465 11.5908 64.6485 11.6012C64.6527 11.6116 64.6631 11.6199 64.6755 11.6199C64.688 11.6199 64.7502 11.6551 64.8145 11.6966C64.8809 11.7402 65.0013 11.8273 65.0801 11.8917C65.159 11.956 65.2918 12.0784 65.3748 12.1614C65.4578 12.2465 65.5739 12.3855 65.6341 12.4706C65.6943 12.5556 65.769 12.6635 65.798 12.7092C65.8271 12.7548 65.881 12.8565 65.9205 12.9374C65.9578 13.0184 66.0159 13.1574 66.0491 13.2487C66.0823 13.34 66.1217 13.4748 66.1404 13.5495C66.157 13.6242 66.1798 13.7218 66.1902 13.7674C66.2006 13.8131 66.2193 13.9811 66.2338 14.1409C66.2504 14.3608 66.2504 14.5082 66.2338 14.7426C66.2193 14.9128 66.2006 15.0954 66.1881 15.1472C66.1757 15.1991 66.157 15.2821 66.1446 15.334C66.1321 15.3858 66.1051 15.4834 66.0823 15.5518C66.0595 15.6203 66.0346 15.695 66.0263 15.7178C66.018 15.7407 65.9661 15.8527 65.9122 15.9668C65.8561 16.0809 65.7545 16.2573 65.6818 16.3611C65.6092 16.4648 65.5013 16.6038 65.4391 16.6702C65.3789 16.7387 65.2627 16.8507 65.1818 16.9192C65.1009 16.9898 65.0158 17.0603 64.995 17.0769C64.9743 17.0956 64.8892 17.1516 64.8104 17.2035C64.7315 17.2554 64.5635 17.3487 64.4369 17.4131C64.3103 17.4753 64.1381 17.5521 64.053 17.5853C63.968 17.6164 63.8123 17.6641 63.7107 17.6932C63.609 17.7222 63.416 17.7658 63.2853 17.7928C63.1546 17.8177 62.9678 17.8509 62.8703 17.8654C62.7583 17.882 62.3474 17.8944 60.7746 17.9069V20.1478H57.6623L57.6643 10.9953ZM60.7746 15.5C61.9511 15.5 62.1482 15.4917 62.2582 15.4688C62.3391 15.4522 62.447 15.4232 62.4968 15.4066C62.5487 15.3879 62.6338 15.3464 62.6836 15.3132C62.7354 15.28 62.8184 15.2116 62.8662 15.1576C62.9139 15.1057 62.9761 15.0186 63.0031 14.9646C63.0301 14.9107 63.0654 14.8194 63.0799 14.7634C63.0986 14.699 63.1089 14.5683 63.1089 14.4314C63.1069 14.2467 63.0986 14.1762 63.0591 14.0683C63.0322 13.9936 62.9927 13.9043 62.9678 13.8712C62.945 13.8359 62.8931 13.7716 62.8516 13.728C62.8122 13.6844 62.7396 13.6222 62.694 13.591C62.6483 13.5578 62.5508 13.5122 62.4761 13.4873C62.4035 13.4603 62.2582 13.4271 62.1545 13.4126C62.03 13.3918 61.7727 13.3835 61.3722 13.3835H60.7746V15.5ZM67.0202 10.9974H68.566C69.923 10.9974 70.1139 10.9995 70.1222 11.0285C70.1284 11.0451 70.1326 12.2506 70.1326 13.7093C70.1326 15.4709 70.1409 16.4026 70.1554 16.4856C70.1678 16.554 70.1865 16.6599 70.199 16.7242C70.2114 16.7864 70.2405 16.8943 70.2612 16.9628C70.284 17.0313 70.3318 17.1433 70.367 17.2118C70.4065 17.2844 70.4978 17.4006 70.5932 17.496C70.6824 17.5853 70.7696 17.6579 70.7862 17.6579C70.8048 17.6579 70.8173 17.6662 70.8173 17.6786C70.8173 17.689 70.8339 17.7035 70.8546 17.7077C70.8754 17.7118 70.9335 17.7326 70.9833 17.7513C71.0352 17.7699 71.1472 17.7969 71.2323 17.8135C71.3194 17.8301 71.4398 17.8446 71.502 17.8446C71.5663 17.8446 71.6908 17.8301 71.7821 17.8156C71.8734 17.799 71.9772 17.7741 72.0104 17.7596C72.0457 17.745 72.1017 17.7222 72.1349 17.7077C72.1701 17.6932 72.2448 17.6475 72.3009 17.6039C72.359 17.5624 72.4316 17.4981 72.4648 17.4629C72.4959 17.4276 72.5478 17.3612 72.581 17.3155C72.6142 17.2699 72.6598 17.1848 72.6847 17.1288C72.7096 17.0707 72.7428 16.9877 72.7594 16.942C72.774 16.8964 72.8071 16.7595 72.8818 16.4233L72.8881 10.9974H75.9424V13.674C75.9424 15.3568 75.9361 16.4295 75.9216 16.5623C75.9092 16.6785 75.8905 16.8404 75.878 16.9213C75.8677 17.0001 75.849 17.1039 75.8386 17.1495C75.8303 17.1952 75.8054 17.301 75.7867 17.3882C75.7681 17.4732 75.7245 17.6268 75.6892 17.7305C75.6539 17.8322 75.5896 18.0003 75.5461 18.104C75.5004 18.2057 75.4174 18.3696 75.3593 18.4671C75.3012 18.5626 75.2141 18.6933 75.1684 18.7576C75.1207 18.8199 75.0647 18.8946 75.0418 18.9236C75.019 18.9506 74.9111 19.0647 74.8032 19.1726C74.6933 19.2826 74.5646 19.4029 74.5148 19.4423C74.465 19.4818 74.3426 19.5689 74.2451 19.6353C74.1455 19.7017 73.9525 19.8117 73.8156 19.8781C73.6786 19.9445 73.4545 20.0358 73.3176 20.0814C73.1806 20.1271 73.0043 20.1789 72.9233 20.1976C72.8445 20.2163 72.7408 20.2391 72.6951 20.2495C72.6495 20.2599 72.5478 20.2785 72.4669 20.291C72.388 20.3034 72.2096 20.3221 72.0726 20.3325C71.9357 20.3449 71.6701 20.3532 71.4813 20.3532C71.2945 20.3532 71.0269 20.3449 70.8899 20.3325C70.753 20.3221 70.5538 20.2993 70.4438 20.2827C70.3359 20.264 70.1533 20.2267 70.0392 20.1976C69.9251 20.1686 69.8006 20.1354 69.7591 20.1229C69.7197 20.1105 69.5993 20.0669 69.4893 20.0275C69.3814 19.9901 69.1988 19.9113 69.0847 19.8532C68.9706 19.7951 68.8648 19.7349 68.8461 19.7204C68.8295 19.7038 68.8088 19.6913 68.8005 19.6913C68.7922 19.6913 68.7631 19.6747 68.7361 19.654C68.7071 19.6332 68.6656 19.6042 68.6386 19.5876C68.6137 19.5689 68.5349 19.5108 68.4664 19.4548C68.3959 19.3988 68.2776 19.2971 68.2029 19.2265C68.1303 19.1539 68.0369 19.0585 67.9954 19.0128C67.956 18.9672 67.902 18.9049 67.8771 18.8738C67.8522 18.8448 67.7775 18.741 67.7132 18.6476C67.6489 18.5543 67.5389 18.3551 67.4663 18.2078C67.3957 18.0584 67.3107 17.8633 67.2795 17.772C67.2505 17.6807 67.2028 17.5209 67.1758 17.4193C67.1509 17.3155 67.1135 17.1329 67.0969 17.0147C67.0783 16.8943 67.0534 16.7117 67.043 16.6101C67.0285 16.4918 67.0202 15.4273 67.0202 13.7093V10.9974ZM35.2157 26.6403L37.7097 26.6486C39.9092 26.6548 40.2329 26.661 40.4507 26.6921C40.5877 26.7108 40.7474 26.7357 40.8035 26.7482C40.8616 26.7585 40.9508 26.7793 41.0006 26.7897C41.0525 26.8021 41.1313 26.8208 41.1769 26.8332C41.2226 26.8457 41.3595 26.8892 41.4778 26.9287C41.5982 26.9681 41.7953 27.0469 41.9135 27.105C42.0339 27.1611 42.1937 27.2461 42.2663 27.2918C42.341 27.3395 42.4862 27.4391 42.5879 27.5159C42.6916 27.5926 42.8369 27.7192 42.9116 27.7981C42.9863 27.8748 43.1004 28.0097 43.1627 28.0948C43.2249 28.1799 43.3037 28.2981 43.339 28.3541C43.3722 28.4122 43.4386 28.5367 43.4863 28.6343C43.532 28.7318 43.5901 28.8667 43.6129 28.9351C43.6357 29.0036 43.6689 29.1198 43.6855 29.1945C43.7021 29.2692 43.725 29.3812 43.7374 29.4435C43.7499 29.5057 43.7706 29.6738 43.7851 29.817C43.8038 30.0224 43.8038 30.1386 43.7831 30.3772C43.7685 30.5432 43.7499 30.7154 43.7395 30.7611C43.7291 30.8067 43.7021 30.925 43.6793 31.0267C43.6565 31.1263 43.6088 31.2798 43.5735 31.369C43.5382 31.4562 43.4697 31.5993 43.4241 31.6844C43.3784 31.7695 43.2913 31.9106 43.2332 31.9956C43.1751 32.0807 43.0299 32.2488 42.9095 32.3691C42.7767 32.504 42.6086 32.6451 42.4738 32.7343C42.3555 32.8152 42.2165 32.9024 42.1688 32.9273C42.1107 32.9563 42.0858 32.9792 42.0941 32.9978C42.1024 33.0103 42.1356 33.0601 42.1688 33.1057C42.1999 33.1514 42.2787 33.2676 42.3431 33.3651C42.4074 33.4626 42.4655 33.5456 42.4717 33.5518C42.48 33.5581 42.5505 33.6597 42.6294 33.7801C42.7103 33.9004 42.9697 34.2822 43.2083 34.6308C43.4448 34.9794 43.6503 35.2823 43.6627 35.3052C43.6752 35.328 43.6959 35.357 43.7084 35.3695C43.7208 35.3819 43.781 35.467 43.8432 35.5604C43.9076 35.6558 43.9594 35.7284 43.9615 35.7264C43.9615 35.7222 44.0279 35.5707 44.1088 35.3882C44.1897 35.2056 44.279 35.0001 44.308 34.9317C44.335 34.8632 44.3869 34.747 44.4221 34.6723C44.4553 34.5976 44.5093 34.4773 44.5404 34.4026C44.5695 34.3279 44.6151 34.2262 44.6379 34.1743C44.6607 34.1224 44.7002 34.0312 44.7292 33.9731C44.7562 33.9129 44.7769 33.8589 44.7769 33.8527C44.7769 33.8465 44.806 33.7801 44.8433 33.7033C44.8786 33.6245 44.9346 33.5041 44.9678 33.4336C44.999 33.361 45.0259 33.2987 45.0259 33.2925C45.0259 33.2863 45.0986 33.1203 45.1836 32.9252C45.2708 32.7281 45.36 32.5268 45.3808 32.4791C45.4036 32.4293 45.4202 32.3857 45.4202 32.3795C45.4202 32.3733 45.4534 32.3007 45.4928 32.2197C45.5301 32.1367 45.5862 32.0122 45.6152 31.9438C45.6422 31.8753 45.6941 31.7591 45.7293 31.6844C45.7625 31.6097 45.8103 31.5039 45.8331 31.4458C45.8538 31.3898 45.8995 31.286 45.9285 31.2175C45.9597 31.1491 46.0136 31.035 46.0468 30.9644C46.0779 30.8918 46.1049 30.8295 46.1049 30.8233C46.1049 30.8171 46.1339 30.7528 46.1671 30.6781C46.2024 30.6034 46.2294 30.539 46.2294 30.5328C46.2294 30.5266 46.2564 30.4643 46.2896 30.3938C46.3228 30.3212 46.3975 30.151 46.4576 30.0141C46.5178 29.8771 46.5842 29.7278 46.605 29.6821C46.6236 29.6365 46.6651 29.5431 46.6942 29.4746C46.7212 29.4061 46.7793 29.2775 46.8208 29.1903C46.8602 29.1011 46.8934 29.0243 46.8934 29.0181C46.8934 29.0119 46.9183 28.9538 46.9473 28.8895C46.9784 28.8231 47.0096 28.7505 47.0199 28.7276C47.0303 28.7048 47.0718 28.6135 47.1112 28.5264C47.1527 28.4371 47.1839 28.3604 47.1839 28.3541C47.1839 28.3479 47.2088 28.2898 47.2399 28.2255C47.2689 28.1591 47.3063 28.074 47.3229 28.0388C47.3374 28.0014 47.3644 27.9392 47.381 27.9039C47.3955 27.8665 47.4868 27.6632 47.5802 27.4516C47.6735 27.2399 47.7669 27.0262 47.7856 26.9743C47.8063 26.9224 47.8478 26.827 47.9308 26.6423H50.981L51.0246 26.7419C51.0495 26.7959 51.0806 26.8726 51.0951 26.9121C51.1096 26.9515 51.1511 27.0469 51.1864 27.1258C51.2217 27.2026 51.2798 27.325 51.313 27.3997C51.3482 27.4744 51.3752 27.5387 51.3752 27.5449C51.3752 27.5512 51.398 27.6051 51.425 27.6653C51.452 27.7234 51.4935 27.8147 51.5163 27.8665C51.5391 27.9184 51.5848 28.0201 51.6138 28.0948C51.645 28.1695 51.6989 28.2898 51.7321 28.3645C51.7674 28.4392 51.8172 28.5554 51.8462 28.6239C51.8753 28.6924 51.9624 28.8936 52.0392 29.07C52.118 29.2464 52.2093 29.4539 52.2446 29.5327C52.2799 29.6095 52.3089 29.6759 52.3089 29.6821C52.3089 29.6883 52.3421 29.763 52.3816 29.8481C52.4231 29.9332 52.4542 30.0079 52.4542 30.0141C52.4542 30.0203 52.477 30.0743 52.504 30.1344C52.531 30.1925 52.5787 30.2984 52.6098 30.3668C52.6409 30.4353 52.6845 30.539 52.7073 30.5951C52.7301 30.6532 52.7779 30.759 52.8111 30.8337C52.8463 30.9084 52.8982 31.0246 52.9252 31.0931C52.9542 31.1615 52.9957 31.2549 53.0144 31.3005C53.0352 31.3462 53.0995 31.4914 53.1555 31.6222C53.2136 31.7529 53.2821 31.9126 53.3111 31.9749C53.3402 32.0371 53.392 32.1596 53.4294 32.2446C53.4667 32.3297 53.5082 32.4293 53.5228 32.4625C53.5373 32.4978 53.5705 32.5725 53.5975 32.6285C53.6224 32.6866 53.6659 32.7841 53.695 32.8464C53.722 32.9086 53.7635 33.0082 53.7863 33.0642C53.8091 33.1223 53.8568 33.2282 53.89 33.3029C53.9253 33.3775 53.9751 33.4937 54.0042 33.5622C54.0332 33.6307 54.0851 33.7469 54.1183 33.8216C54.1535 33.8963 54.2116 34.0312 54.2511 34.1224C54.2884 34.2137 54.3465 34.3486 54.3818 34.4233C54.415 34.498 54.4689 34.6184 54.5001 34.6931C54.5291 34.7677 54.5727 34.8673 54.5934 34.9171C54.6163 34.9649 54.6536 35.0479 54.6785 35.1039C54.7013 35.1578 54.7491 35.2595 54.7822 35.3321C54.8134 35.4027 54.8403 35.4649 54.8403 35.4712C54.8403 35.4774 54.8694 35.5417 54.9026 35.6164C54.9545 35.7284 54.9607 35.7575 54.9399 35.7845C54.9171 35.8114 54.7408 35.8156 51.7798 35.8031L51.7446 35.7305C51.7259 35.6911 51.6616 35.5313 51.6035 35.3778C51.5454 35.2242 51.4893 35.079 51.479 35.0562C51.4686 35.0333 51.4375 34.9545 51.4105 34.8798C51.3835 34.8051 51.3171 34.6267 51.1574 34.2158L47.6984 34.2262L47.5968 34.4959C47.5387 34.6453 47.4847 34.7864 47.4744 34.8134C47.464 34.8383 47.4453 34.8798 47.4349 34.9068C47.4266 34.9317 47.3644 35.0935 47.3001 35.2637C47.2337 35.4359 47.1673 35.606 47.1527 35.6434C47.1361 35.6786 47.1216 35.7201 47.1216 35.7305C47.1216 35.743 47.1071 35.7658 47.0905 35.7824C47.0614 35.8094 46.6693 35.8135 40.6893 35.8135L40.6209 35.716C40.5835 35.66 40.4134 35.411 40.2432 35.1599C40.0731 34.9088 39.8531 34.5831 39.7535 34.4337C39.6539 34.2864 39.4714 34.0146 39.1207 33.5L38.3032 33.4896L38.2928 35.8031H35.2219L35.2157 26.6403ZM38.3052 31.1678C39.405 31.1657 39.6249 31.1574 39.7369 31.1366C39.822 31.12 39.9154 31.1014 39.9444 31.0931C39.9735 31.0868 40.0565 31.0516 40.1312 31.0184C40.21 30.9831 40.3117 30.9125 40.376 30.8482C40.4383 30.7901 40.5088 30.6988 40.5358 30.649C40.5607 30.5971 40.598 30.5038 40.6167 30.4415C40.6395 30.3668 40.6499 30.2486 40.6499 30.0992C40.6499 29.9228 40.6395 29.8377 40.6063 29.736C40.5835 29.6614 40.5337 29.5535 40.4984 29.4974C40.4611 29.4414 40.3947 29.3626 40.347 29.3211C40.3013 29.2816 40.2121 29.2215 40.1499 29.1903C40.0876 29.1592 39.9859 29.1219 39.9237 29.1053C39.8614 29.0887 39.7141 29.0658 39.5959 29.0534C39.4797 29.0409 39.1414 29.0306 38.8447 29.0306H38.3052V31.1678ZM49.2733 30.1407C49.2069 30.3108 49.1364 30.4913 49.1135 30.539C49.0928 30.5868 49.072 30.6345 49.07 30.6428C49.07 30.6511 48.9994 30.8399 48.9144 31.0619C48.8293 31.286 48.7525 31.4873 48.7421 31.5101C48.7318 31.5329 48.7006 31.6159 48.6695 31.6969C48.6405 31.7757 48.6073 31.8629 48.5969 31.8878C48.5844 31.9127 48.5761 31.9438 48.5761 31.9562C48.5761 31.9687 48.877 31.977 49.4372 31.977H50.2983C50.2714 31.8878 50.2485 31.8297 50.2319 31.7902C50.2133 31.7487 50.1178 31.506 50.0182 31.2507C49.9186 30.9935 49.8294 30.759 49.8211 30.732C49.8128 30.703 49.792 30.6469 49.7734 30.6075C49.7568 30.566 49.6883 30.3938 49.624 30.2237C49.5576 30.0514 49.4891 29.8751 49.4684 29.8294C49.4352 29.7526 49.431 29.7485 49.4123 29.7879C49.3999 29.8107 49.3376 29.9684 49.2733 30.1407ZM54.3029 26.6444H62.7479V29.0513H60.092V32.4023C60.092 35.4214 60.0878 35.7554 60.0588 35.7845C60.0318 35.8114 59.8326 35.8156 58.5337 35.8156C57.7141 35.8156 57.0273 35.8094 57.0107 35.8052C56.9837 35.7948 56.9796 35.4006 56.9796 29.0513H54.3029V26.6444ZM63.5156 26.6444H66.628V31.2196C66.628 35.2678 66.6239 35.7948 66.5969 35.8052C66.5803 35.8094 65.8935 35.8156 65.0718 35.8156C64.2501 35.8156 63.5633 35.8094 63.5467 35.8052C63.5198 35.7948 63.5156 35.2678 63.5156 31.2196V26.6444Z" fill="#106FA4"/>
</svg>
