<svg width="24" height="24" viewBox="0 0 24 24" fill="none" xmlns="http://www.w3.org/2000/svg">
<path fill-rule="evenodd" clip-rule="evenodd" d="M3.995 4.99562C3.995 4.44299 4.44299 3.995 4.99562 3.995C5.54825 3.995 5.99625 4.44299 5.99625 4.99562V19.0044C5.99625 19.557 5.54825 20.005 4.99562 20.005C4.44299 20.005 3.995 19.557 3.995 19.0044V4.99562ZM18.5147 5.37853C18.8592 5.20186 19.2727 5.22744 19.5927 5.44523C19.8542 5.63527 20.0077 5.93988 20.005 6.26308V16.216C20.005 16.835 19.5994 17.0645 19.1511 17.2353C18.0791 17.6998 16.9299 17.9604 15.7623 18.0037C14.6194 17.9268 13.4919 17.6977 12.4096 17.3227C10.3169 16.7103 9.61651 16.5635 8.11223 16.7363C7.82876 16.769 7.54481 16.6791 7.33177 16.4893C7.11874 16.2995 6.99689 16.0277 6.99687 15.7423V5.72274C6.996 5.21948 7.36904 4.79387 7.86808 4.72879C9.58515 4.50732 10.361 4.66208 12.6004 5.31582C13.6215 5.67004 14.6844 5.88958 15.7623 5.96889C16.7072 5.93435 17.6388 5.73454 18.5147 5.37853Z" fill="#EE2D24"/>
<mask id="mask0_168_163" style="mask-type:alpha" maskUnits="userSpaceOnUse" x="3" y="3" width="18" height="18">
<path fill-rule="evenodd" clip-rule="evenodd" d="M3.995 4.99562C3.995 4.44299 4.44299 3.995 4.99562 3.995C5.54825 3.995 5.99625 4.44299 5.99625 4.99562V19.0044C5.99625 19.557 5.54825 20.005 4.99562 20.005C4.44299 20.005 3.995 19.557 3.995 19.0044V4.99562ZM18.5147 5.37853C18.8592 5.20186 19.2727 5.22744 19.5927 5.44523C19.8542 5.63527 20.0077 5.93988 20.005 6.26308V16.216C20.005 16.835 19.5994 17.0645 19.1511 17.2353C18.0791 17.6998 16.9299 17.9604 15.7623 18.0037C14.6194 17.9268 13.4919 17.6977 12.4096 17.3227C10.3169 16.7103 9.61651 16.5635 8.11223 16.7363C7.82876 16.769 7.54481 16.6791 7.33177 16.4893C7.11874 16.2995 6.99689 16.0277 6.99687 15.7423V5.72274C6.996 5.21948 7.36904 4.79387 7.86808 4.72879C9.58515 4.50732 10.361 4.66208 12.6004 5.31582C13.6215 5.67004 14.6844 5.88958 15.7623 5.96889C16.7072 5.93435 17.6388 5.73454 18.5147 5.37853Z" fill="white"/>
</mask>
<g mask="url(#mask0_168_163)">
</g>
</svg>
