<svg width="24" height="24" viewBox="0 0 24 24" fill="none" xmlns="http://www.w3.org/2000/svg">
<path d="M16.803 13.601C15.9361 13.6017 15.1069 13.9555 14.5065 14.5808L10.9888 12.8217C11.019 12.6561 11.0359 12.4885 11.0394 12.3202C11.0359 12.152 11.019 11.9843 10.9888 11.8188L14.5065 10.0596C15.5733 11.1559 17.2671 11.3427 18.5471 10.5053C19.8271 9.66783 20.3344 8.04094 19.7572 6.62444C19.1799 5.20794 17.6801 4.39895 16.1793 4.69465C14.6786 4.99035 13.5977 6.30785 13.601 7.83744C13.6045 8.00587 13.6214 8.17376 13.6516 8.33951L10.1339 10.0974C9.22758 9.15745 7.84132 8.86195 6.63049 9.35061C5.41966 9.83927 4.62683 11.0142 4.62683 12.3199C4.62683 13.6256 5.41966 14.8006 6.63049 15.2892C7.84132 15.7779 9.22758 15.4824 10.1339 14.5424L13.6516 16.301C13.6214 16.4667 13.6045 16.6346 13.601 16.803C13.601 18.5715 15.0346 20.005 16.803 20.005C18.5714 20.005 20.005 18.5715 20.005 16.803C20.005 15.0346 18.5714 13.601 16.803 13.601Z" fill="#106FA4"/>
<mask id="mask0_168_223" style="mask-type:alpha" maskUnits="userSpaceOnUse" x="4" y="4" width="17" height="17">
<path d="M16.803 13.601C15.9361 13.6017 15.1069 13.9555 14.5065 14.5808L10.9888 12.8217C11.019 12.6561 11.0359 12.4885 11.0394 12.3202C11.0359 12.152 11.019 11.9843 10.9888 11.8188L14.5065 10.0596C15.5733 11.1559 17.2671 11.3427 18.5471 10.5053C19.8271 9.66783 20.3344 8.04094 19.7572 6.62444C19.1799 5.20794 17.6801 4.39895 16.1793 4.69465C14.6786 4.99035 13.5977 6.30785 13.601 7.83744C13.6045 8.00587 13.6214 8.17376 13.6516 8.33951L10.1339 10.0974C9.22758 9.15745 7.84132 8.86195 6.63049 9.35061C5.41966 9.83927 4.62683 11.0142 4.62683 12.3199C4.62683 13.6256 5.41966 14.8006 6.63049 15.2892C7.84132 15.7779 9.22758 15.4824 10.1339 14.5424L13.6516 16.301C13.6214 16.4667 13.6045 16.6346 13.601 16.803C13.601 18.5715 15.0346 20.005 16.803 20.005C18.5714 20.005 20.005 18.5715 20.005 16.803C20.005 15.0346 18.5714 13.601 16.803 13.601Z" fill="white"/>
</mask>
<g mask="url(#mask0_168_223)">
</g>
</svg>
